#Comment line ignore any data following # character 
#Hierarchical Translation and Rotation (.htr) file 
[Header]	
#Header keywords are followed by a single value 
FileType HTR		#Single word string
DataType HTRS		#Translation followed by rotation and scale data
FileVersion 1		#integer
NumSegments 84		#integer
NumFrames 2		#integer
DataFrameRate 30		#integer, data frame rate in this file
EulerRotationOrder ZYX
CalibrationUnits mm
RotationUnits Degrees
GlobalAxisofGravity Y
BoneLengthAxis Y
ScaleFactor 1.00
[SegmentNames&Hierarchy]
#CHILD	PARENT
MASTER GLOBAL
root MASTER
chest root
L_mid_tent01 root
R_mid_tent01 root
spine01 root
Bip01_Neck chest
L_humerus chest
R_humerus chest
weapon_bone chest
Bip01_Head Bip01_Neck
eye_left_bone Bip01_Head
eye_right_bone Bip01_Head
L_forearm L_humerus
L_front_hand L_forearm
L_weapon_bone L_forearm
L_front_hand01_01 L_front_hand
L_front_hand02_01 L_front_hand
L_front_hand03_01 L_front_hand
L_front_hand01_02 L_front_hand01_01
L_front_hand02_02 L_front_hand02_01
L_front_hand03_02 L_front_hand03_01
R_forearm R_humerus
R_front_hand R_forearm
R_weapon_bone R_forearm
R_front_hand01_01 R_front_hand
R_front_hand02_01 R_front_hand
R_front_hand03_01 R_front_hand
R_front_hand01_02 R_front_hand01_01
R_front_hand02_02 R_front_hand02_01
R_front_hand03_02 R_front_hand03_01
null_rope01_connect L_mid_tent01
Rope1_Seg01 null_rope01_connect
Rope1_Seg02 Rope1_Seg01
Rope1_Seg03 Rope1_Seg02
Rope1_Seg04 Rope1_Seg03
Rope1_Seg05 Rope1_Seg04
Rope1_Seg06 Rope1_Seg05
Rope1_Seg07 Rope1_Seg06
Rope1_Seg09 Rope1_Seg07
L_mid_hand01 Rope1_Seg09
L_mid_hand02 Rope1_Seg09
L_mid_hand03 Rope1_Seg09
null_rope02_connect R_mid_tent01
Rope2_Seg01 null_rope02_connect
Rope2_Seg02 Rope2_Seg01
Rope2_Seg03 Rope2_Seg02
Rope2_Seg04 Rope2_Seg03
Rope2_Seg05 Rope2_Seg04
Rope2_Seg06 Rope2_Seg05
Rope2_Seg07 Rope2_Seg06
Rope2_Seg09 Rope2_Seg07
R_mid_hand01 Rope2_Seg09
R_mid_hand02 Rope2_Seg09
R_mid_hand03 Rope2_Seg09
spine02 spine01
spine03 spine02
pelvis spine03
null_rope03_connect pelvis
null_rope04_connect pelvis
Rope3_Seg01 null_rope03_connect
Rope3_Seg02 Rope3_Seg01
Rope3_Seg03 Rope3_Seg02
Rope3_Seg04 Rope3_Seg03
Rope3_Seg05 Rope3_Seg04
Rope3_Seg06 Rope3_Seg05
Rope3_Seg07 Rope3_Seg06
Rope3_Seg08 Rope3_Seg07
Rope3_Seg09 Rope3_Seg08
R_rear_hand01 Rope3_Seg09
R_rear_hand02 Rope3_Seg09
R_rear_hand03 Rope3_Seg09
Rope4_Seg01 null_rope04_connect
Rope4_Seg02 Rope4_Seg01
Rope4_Seg03 Rope4_Seg02
Rope4_Seg04 Rope4_Seg03
Rope4_Seg05 Rope4_Seg04
Rope4_Seg06 Rope4_Seg05
Rope4_Seg07 Rope4_Seg06
Rope4_Seg08 Rope4_Seg07
Rope4_Seg09 Rope4_Seg08
L_rear_hand01 Rope4_Seg09
L_rear_hand02 Rope4_Seg09
L_rear_hand03 Rope4_Seg09
[BasePosition]
#SegmentName Tx, Ty, Tz, Rx, Ry, Rz, BoneLength
MASTER 0.000000 0.000000 0.000000 -90.000000 0.000000 0.000000 10.000000 
root 0.000000 0.000000 0.000000 0.000000 0.000000 0.000000 10.000000 
chest 0.000000 0.000000 0.000000 0.000000 0.000000 0.000000 10.000000 
L_mid_tent01 0.000000 0.000000 0.000000 0.000000 0.000000 0.000000 10.000000 
R_mid_tent01 0.000000 0.000000 0.000000 0.000000 0.000000 0.000000 10.000000 
spine01 0.000000 0.000000 0.000000 0.000000 0.000000 0.000000 10.000000 
Bip01_Neck 0.000000 0.000000 0.000000 0.000000 0.000000 0.000000 10.000000 
L_humerus 0.000000 0.000000 0.000000 0.000000 0.000000 0.000000 10.000000 
R_humerus 0.000000 0.000000 0.000000 0.000000 0.000000 0.000000 10.000000 
weapon_bone 0.000000 0.000000 0.000000 0.000000 0.000000 0.000000 10.000000 
Bip01_Head 0.000000 0.000000 0.000000 0.000000 0.000000 0.000000 10.000000 
eye_left_bone 0.000000 0.000000 0.000000 0.000000 0.000000 0.000000 10.000000 
eye_right_bone 0.000000 0.000000 0.000000 0.000000 0.000000 0.000000 10.000000 
L_forearm 0.000000 0.000000 0.000000 0.000000 0.000000 0.000000 10.000000 
L_front_hand 0.000000 0.000000 0.000000 0.000000 0.000000 0.000000 10.000000 
L_weapon_bone 0.000000 0.000000 0.000000 0.000000 0.000000 0.000000 10.000000 
L_front_hand01_01 0.000000 0.000000 0.000000 0.000000 0.000000 0.000000 10.000000 
L_front_hand02_01 0.000000 0.000000 0.000000 0.000000 0.000000 0.000000 10.000000 
L_front_hand03_01 0.000000 0.000000 0.000000 0.000000 0.000000 0.000000 10.000000 
L_front_hand01_02 0.000000 0.000000 0.000000 0.000000 0.000000 0.000000 10.000000 
L_front_hand02_02 0.000000 0.000000 0.000000 0.000000 0.000000 0.000000 10.000000 
L_front_hand03_02 0.000000 0.000000 0.000000 0.000000 0.000000 0.000000 10.000000 
R_forearm 0.000000 0.000000 0.000000 0.000000 0.000000 0.000000 10.000000 
R_front_hand 0.000000 0.000000 0.000000 0.000000 0.000000 0.000000 10.000000 
R_weapon_bone 0.000000 0.000000 0.000000 0.000000 0.000000 0.000000 10.000000 
R_front_hand01_01 0.000000 0.000000 0.000000 0.000000 0.000000 0.000000 10.000000 
R_front_hand02_01 0.000000 0.000000 0.000000 0.000000 0.000000 0.000000 10.000000 
R_front_hand03_01 0.000000 0.000000 0.000000 0.000000 0.000000 0.000000 10.000000 
R_front_hand01_02 0.000000 0.000000 0.000000 0.000000 0.000000 0.000000 10.000000 
R_front_hand02_02 0.000000 0.000000 0.000000 0.000000 0.000000 0.000000 10.000000 
R_front_hand03_02 0.000000 0.000000 0.000000 0.000000 0.000000 0.000000 10.000000 
null_rope01_connect 0.000000 0.000000 0.000000 0.000000 0.000000 0.000000 10.000000 
Rope1_Seg01 0.000000 0.000000 0.000000 0.000000 0.000000 0.000000 10.000000 
Rope1_Seg02 0.000000 0.000000 0.000000 0.000000 0.000000 0.000000 10.000000 
Rope1_Seg03 0.000000 0.000000 0.000000 0.000000 0.000000 0.000000 10.000000 
Rope1_Seg04 0.000000 0.000000 0.000000 0.000000 0.000000 0.000000 10.000000 
Rope1_Seg05 0.000000 0.000000 0.000000 0.000000 0.000000 0.000000 10.000000 
Rope1_Seg06 0.000000 0.000000 0.000000 0.000000 0.000000 0.000000 10.000000 
Rope1_Seg07 0.000000 0.000000 0.000000 0.000000 0.000000 0.000000 10.000000 
Rope1_Seg09 0.000000 0.000000 0.000000 0.000000 0.000000 0.000000 10.000000 
L_mid_hand01 0.000000 0.000000 0.000000 0.000000 0.000000 0.000000 10.000000 
L_mid_hand02 0.000000 0.000000 0.000000 0.000000 0.000000 0.000000 10.000000 
L_mid_hand03 0.000000 0.000000 0.000000 0.000000 0.000000 0.000000 10.000000 
null_rope02_connect 0.000000 0.000000 0.000000 0.000000 0.000000 0.000000 10.000000 
Rope2_Seg01 0.000000 0.000000 0.000000 0.000000 0.000000 0.000000 10.000000 
Rope2_Seg02 0.000000 0.000000 0.000000 0.000000 0.000000 0.000000 10.000000 
Rope2_Seg03 0.000000 0.000000 0.000000 0.000000 0.000000 0.000000 10.000000 
Rope2_Seg04 0.000000 0.000000 0.000000 0.000000 0.000000 0.000000 10.000000 
Rope2_Seg05 0.000000 0.000000 0.000000 0.000000 0.000000 0.000000 10.000000 
Rope2_Seg06 0.000000 0.000000 0.000000 0.000000 0.000000 0.000000 10.000000 
Rope2_Seg07 0.000000 0.000000 0.000000 0.000000 0.000000 0.000000 10.000000 
Rope2_Seg09 0.000000 0.000000 0.000000 0.000000 0.000000 0.000000 10.000000 
R_mid_hand01 0.000000 0.000000 0.000000 0.000000 0.000000 0.000000 10.000000 
R_mid_hand02 0.000000 0.000000 0.000000 0.000000 0.000000 0.000000 10.000000 
R_mid_hand03 0.000000 0.000000 0.000000 0.000000 0.000000 0.000000 10.000000 
spine02 0.000000 0.000000 0.000000 0.000000 0.000000 0.000000 10.000000 
spine03 0.000000 0.000000 0.000000 0.000000 0.000000 0.000000 10.000000 
pelvis 0.000000 0.000000 0.000000 0.000000 0.000000 0.000000 10.000000 
null_rope03_connect 0.000000 0.000000 0.000000 0.000000 0.000000 0.000000 10.000000 
null_rope04_connect 0.000000 0.000000 0.000000 0.000000 0.000000 0.000000 10.000000 
Rope3_Seg01 0.000000 0.000000 0.000000 0.000000 0.000000 0.000000 10.000000 
Rope3_Seg02 0.000000 0.000000 0.000000 0.000000 0.000000 0.000000 10.000000 
Rope3_Seg03 0.000000 0.000000 0.000000 0.000000 0.000000 0.000000 10.000000 
Rope3_Seg04 0.000000 0.000000 0.000000 0.000000 0.000000 0.000000 10.000000 
Rope3_Seg05 0.000000 0.000000 0.000000 0.000000 0.000000 0.000000 10.000000 
Rope3_Seg06 0.000000 0.000000 0.000000 0.000000 0.000000 0.000000 10.000000 
Rope3_Seg07 0.000000 0.000000 0.000000 0.000000 0.000000 0.000000 10.000000 
Rope3_Seg08 0.000000 0.000000 0.000000 0.000000 0.000000 0.000000 10.000000 
Rope3_Seg09 0.000000 0.000000 0.000000 0.000000 0.000000 0.000000 10.000000 
R_rear_hand01 0.000000 0.000000 0.000000 0.000000 0.000000 0.000000 10.000000 
R_rear_hand02 0.000000 0.000000 0.000000 0.000000 0.000000 0.000000 10.000000 
R_rear_hand03 0.000000 0.000000 0.000000 0.000000 0.000000 0.000000 10.000000 
Rope4_Seg01 0.000000 0.000000 0.000000 0.000000 0.000000 0.000000 10.000000 
Rope4_Seg02 0.000000 0.000000 0.000000 0.000000 0.000000 0.000000 10.000000 
Rope4_Seg03 0.000000 0.000000 0.000000 0.000000 0.000000 0.000000 10.000000 
Rope4_Seg04 0.000000 0.000000 0.000000 0.000000 0.000000 0.000000 10.000000 
Rope4_Seg05 0.000000 0.000000 0.000000 0.000000 0.000000 0.000000 10.000000 
Rope4_Seg06 0.000000 0.000000 0.000000 0.000000 0.000000 0.000000 10.000000 
Rope4_Seg07 0.000000 0.000000 0.000000 0.000000 0.000000 0.000000 10.000000 
Rope4_Seg08 0.000000 0.000000 0.000000 0.000000 0.000000 0.000000 10.000000 
Rope4_Seg09 0.000000 0.000000 0.000000 0.000000 0.000000 0.000000 10.000000 
L_rear_hand01 0.000000 0.000000 0.000000 0.000000 0.000000 0.000000 10.000000 
L_rear_hand02 0.000000 0.000000 0.000000 0.000000 0.000000 0.000000 10.000000 
L_rear_hand03 0.000000 0.000000 0.000000 0.000000 0.000000 0.000000 10.000000 
#Beginning of Data. Separated by tabs
#Fr	Tx	Ty	Tz	Rx	Ry	Rz	SF
[MASTER]
33 0.000000 0.000000 0.000000 0.001660 0.001660 0.001660 0.000000
34 0.000000 0.000000 0.000000 0.001660 0.001660 0.001660 0.000000
[root]
33 53.224632 8.457715 1449.356689 -87.665047 -12.487719 -87.099693 1450.358276
34 24.641861 8.880938 1448.910400 -89.253792 -12.088785 -87.624817 1449.147095
[chest]
33 -84.512650 -34.090519 0.000000 -0.526704 0.577100 166.163330 91.129311
34 -84.512650 -34.090519 0.000000 -0.970372 0.419604 166.281723 91.129311
[L_mid_tent01]
33 27.299103 22.179169 -249.918625 -19.447607 17.017776 20.675001 252.381607
34 27.299097 22.179192 -249.918625 -19.819387 15.783698 18.721853 252.381607
[R_mid_tent01]
33 23.228794 24.509907 226.238495 -169.646149 -21.409748 33.204918 228.744751
34 23.228794 24.509907 226.238495 -168.466721 -20.608322 30.867718 228.744751
[spine01]
33 -0.361383 -0.195265 0.000000 0.001942 0.001318 21.665556 0.410763
34 -0.361383 -0.195265 0.000000 0.001943 0.001317 21.762133 0.410763
[Bip01_Neck]
33 165.484543 71.581718 0.000119 176.643677 -1.657967 43.431911 180.302734
34 165.484543 71.581718 0.000119 176.643677 -1.657967 43.431911 180.302734
[L_humerus]
33 -13.983130 -135.272980 -120.471481 43.549664 80.218971 122.124123 181.680161
34 -13.983130 -135.272980 -120.471481 23.402308 78.095779 105.037498 181.680161
[R_humerus]
33 -13.983309 -135.273102 125.287651 -23.582272 -87.284012 109.379982 184.909012
34 -13.983309 -135.273102 125.287651 11.858432 -83.141449 76.435722 184.909012
[weapon_bone]
33 235.964890 -300.705902 0.000000 0.000000 -89.951546 -128.212341 382.234833
34 235.964890 -300.705902 0.000000 0.000000 -89.951546 -128.212341 382.234833
[Bip01_Head]
33 213.444138 185.715546 11.776935 4.962490 2.797846 -43.898743 283.173737
34 213.444138 185.715546 11.776935 4.962490 2.797846 -43.898743 283.173737
[eye_left_bone]
33 -24.626970 125.451866 -64.772606 0.000000 -90.000000 -99.840431 143.318359
34 -24.626970 125.451866 -64.772606 0.000000 -90.000000 -99.840431 143.318359
[eye_right_bone]
33 -24.626970 125.451866 64.327362 0.000000 -89.965736 80.156380 143.117676
34 -24.626970 125.451866 64.327362 0.000000 -89.965736 80.156380 143.117676
[L_forearm]
33 322.776093 0.000000 -0.000119 0.000713 -0.002236 -125.390198 322.776093
34 322.776093 0.000000 -0.000119 0.000657 -0.002253 -122.510345 322.776093
[L_front_hand]
33 241.149185 -0.042021 -3.300071 149.893951 -1.837326 -27.423067 241.171753
34 241.149185 -0.042021 -3.300071 149.893951 -1.837326 -27.423067 241.171753
[L_weapon_bone]
33 156.183838 0.000000 0.000000 0.000014 0.000007 0.000001 156.183838
34 156.183838 0.000000 0.000000 0.000014 0.000007 0.000001 156.183838
[L_front_hand01_01]
33 86.095154 20.947098 -0.655860 -0.366594 -0.477154 75.385574 88.609184
34 86.095154 20.947098 -0.655860 -0.366594 -0.477154 75.385574 88.609184
[L_front_hand02_01]
33 86.935165 -11.437475 24.513514 154.399796 -59.883835 -61.369587 91.046425
34 86.935165 -11.437475 24.513514 154.399796 -59.883835 -61.369587 91.046425
[L_front_hand03_01]
33 86.637497 -14.123976 -20.424902 -153.913849 58.118122 -62.702866 90.126129
34 86.637497 -14.123976 -20.424902 -153.913849 58.118122 -62.702866 90.126129
[L_front_hand01_02]
33 71.020905 -0.000179 0.000030 0.000334 -0.002323 -106.379684 71.020905
34 71.020905 -0.000179 0.000030 0.000334 -0.002323 -106.379684 71.020905
[L_front_hand02_02]
33 71.020927 -0.000119 0.000060 0.000334 -0.002323 -106.379684 71.020927
34 71.020927 -0.000119 0.000060 0.000334 -0.002323 -106.379684 71.020927
[L_front_hand03_02]
33 71.020905 -0.000060 0.000060 0.000334 -0.002323 -106.379684 71.020905
34 71.020905 -0.000060 0.000060 0.000334 -0.002323 -106.379684 71.020905
[R_forearm]
33 322.776428 -0.000060 0.000030 0.182808 0.111427 -121.786797 322.776428
34 322.776428 -0.000060 0.000030 0.186788 0.100958 -119.481224 322.776428
[R_front_hand]
33 238.847015 -0.006795 2.210259 -8.879457 -10.642941 -26.315098 238.857239
34 238.847015 -0.006795 2.210259 -8.879457 -10.642941 -26.315098 238.857239
[R_weapon_bone]
33 155.664093 0.002503 -0.000030 0.003487 0.001180 -90.988930 155.664078
34 155.664093 0.002503 -0.000030 0.003487 0.001180 -90.988930 155.664078
[R_front_hand01_01]
33 87.624611 14.231146 22.918642 -154.633499 -59.950619 61.746044 91.683487
34 87.624611 14.231146 22.918642 -154.633499 -59.950619 61.746044 91.683487
[R_front_hand02_01]
33 89.356956 14.367283 -19.491137 154.602661 58.302849 63.744389 92.579636
34 89.356956 14.367283 -19.491137 154.602661 58.302849 63.744389 92.579636
[R_front_hand03_01]
33 87.286232 -22.307278 -0.143439 0.162155 -0.423168 -75.767921 90.091743
34 87.286232 -22.307278 -0.143439 0.162155 -0.423168 -75.767921 90.091743
[R_front_hand01_02]
33 71.020905 0.000060 0.000119 0.002323 -0.000334 106.381714 71.020905
34 71.020905 0.000060 0.000119 0.002323 -0.000334 106.381714 71.020905
[R_front_hand02_02]
33 71.020844 -0.000030 -0.000119 0.002323 -0.000334 106.381714 71.020836
34 71.020844 -0.000030 -0.000119 0.002323 -0.000334 106.381714 71.020836
[R_front_hand03_02]
33 71.020905 0.000000 0.000030 0.002323 -0.000334 106.381714 71.020905
34 71.020905 0.000000 0.000030 0.002323 -0.000334 106.381714 71.020905
[null_rope01_connect]
33 328.732483 0.000000 -0.000238 -152.792786 -68.034981 -128.001740 328.732483
34 328.732483 0.000000 -0.000238 -153.799026 -66.702415 -125.219925 328.732483
[Rope1_Seg01]
33 0.000064 -0.000041 0.000136 25.843094 8.230699 -112.768646 0.000155
34 0.000067 -0.000041 0.000140 39.164860 2.763295 -116.339928 0.000160
[Rope1_Seg02]
33 139.999863 -0.000179 0.000000 -24.332008 5.150982 9.708434 139.999863
34 139.999863 -0.000179 0.000000 -21.052156 6.898000 5.762567 139.999863
[Rope1_Seg03]
33 139.999924 0.000060 -0.000060 -5.951222 -1.538242 6.632808 139.999924
34 139.999924 0.000060 -0.000060 -12.217753 2.719236 6.117135 139.999924
[Rope1_Seg04]
33 139.999924 -0.000060 -0.000119 -7.255733 0.350931 7.065544 139.999924
34 139.999924 -0.000060 -0.000119 -10.387423 2.090010 6.928831 139.999924
[Rope1_Seg05]
33 139.999832 0.000119 -0.000060 -11.267926 4.073673 9.752445 139.999832
34 139.999832 0.000119 -0.000060 -10.850019 2.989253 8.313259 139.999832
[Rope1_Seg06]
33 139.999954 0.000119 -0.000060 -5.373178 1.387187 6.272731 139.999954
34 139.999954 0.000119 -0.000060 -4.795472 0.843929 4.848640 139.999954
[Rope1_Seg07]
33 139.999985 0.000060 0.000000 -2.234814 0.171285 3.367454 139.999985
34 139.999985 0.000060 0.000000 -2.192057 0.122980 2.720185 139.999985
[Rope1_Seg09]
33 121.602913 0.000119 -0.000089 -89.793175 -1.359789 0.847147 121.602913
34 121.602913 0.000119 -0.000089 -89.793175 -1.359789 0.847147 121.602913
[L_mid_hand01]
33 103.859421 1.038730 8.195221 109.056190 -40.604698 -13.201404 104.187431
34 103.859421 1.038730 8.195221 109.056198 -40.604698 -13.201401 104.187431
[L_mid_hand02]
33 105.572853 -4.139662 -10.864139 -146.713593 31.476524 -37.902309 106.211075
34 105.572853 -4.139662 -10.864139 -146.713593 31.476528 -37.902313 106.211075
[L_mid_hand03]
33 104.641464 17.579376 -3.913581 -14.267233 12.322316 43.898396 106.179977
34 104.641464 17.579376 -3.913581 -14.267233 12.322316 43.898396 106.179977
[null_rope02_connect]
33 328.732849 0.000179 -0.000119 -135.508270 62.324589 -22.571886 328.732849
34 328.732849 0.000179 -0.000119 -135.889145 64.255699 -24.693935 328.732849
[Rope2_Seg01]
33 0.000081 0.000110 0.000013 36.893150 -2.966861 -47.625923 0.000137
34 0.000084 0.000111 0.000010 37.174606 -2.779981 -47.700954 0.000140
[Rope2_Seg02]
33 139.999741 -0.000060 -0.000119 15.023556 -0.220830 -6.111294 139.999756
34 139.999741 -0.000060 -0.000119 17.481121 -1.425105 -6.851677 139.999756
[Rope2_Seg03]
33 140.000107 0.000030 0.000000 5.499440 1.508696 -2.709068 140.000107
34 140.000107 0.000030 0.000000 5.679531 1.003006 -2.712041 140.000107
[Rope2_Seg04]
33 139.999802 0.000000 -0.000060 13.167141 -2.469683 -3.924144 139.999802
34 139.999802 0.000000 -0.000060 13.853228 -4.497157 -4.180210 139.999802
[Rope2_Seg05]
33 139.999985 -0.000060 0.000119 16.834587 -12.179409 -4.416609 139.999985
34 139.999985 -0.000060 0.000119 13.508323 -13.592403 -3.300652 139.999985
[Rope2_Seg06]
33 139.999893 -0.000030 -0.000119 5.137051 -8.363368 -0.423810 139.999893
34 139.999893 -0.000030 -0.000119 3.829208 -8.004377 -0.062959 139.999893
[Rope2_Seg07]
33 139.999893 0.000060 -0.000060 1.985670 -4.382286 0.019733 139.999893
34 139.999893 0.000060 -0.000060 1.535578 -4.249948 0.142665 139.999893
[Rope2_Seg09]
33 121.338966 0.000089 -0.000060 33.793236 -1.359788 -0.847141 121.338966
34 121.338966 0.000089 -0.000060 33.793236 -1.359788 -0.847141 121.338966
[R_mid_hand01]
33 104.680779 11.144459 -10.335981 -37.204079 31.906813 37.576260 105.778534
34 104.680779 11.144459 -10.335981 -37.204079 31.906813 37.576260 105.778534
[R_mid_hand02]
33 104.070427 2.443552 8.231699 70.367455 -42.427380 14.067807 104.424065
34 104.070427 2.443552 8.231699 70.367462 -42.427391 14.067809 104.424065
[R_mid_hand03]
33 106.028137 -11.221827 -5.996406 -169.893616 12.226661 -47.211018 106.788818
34 106.028137 -11.221827 -5.996406 -169.893616 12.226661 -47.211018 106.788818
[spine02]
33 129.756927 0.001550 0.000119 0.275005 -4.052792 -11.733563 129.756927
34 129.756927 0.001550 0.000119 0.296285 -4.050958 -12.028944 129.756927
[spine03]
33 78.614082 0.082029 -4.899000 1.845449 3.856196 15.735128 78.766624
34 78.614090 0.081968 -4.899001 1.857860 3.850260 15.921292 78.766632
[pelvis]
33 169.435242 0.051022 0.000000 -0.054193 -0.181432 12.602322 169.435257
34 169.435242 0.051022 0.000000 -0.055764 -0.181146 12.973727 169.435257
[null_rope03_connect]
33 -1.257226 -2.466202 137.391083 46.214981 -85.190216 17.924995 137.418976
34 -1.257226 -2.466202 137.391083 55.465553 -86.838326 7.970826 137.418976
[null_rope04_connect]
33 -1.259640 -2.480268 -137.844437 46.214981 -85.190216 17.924995 137.872513
34 -1.259640 -2.480268 -137.844437 55.465553 -86.838326 7.970826 137.872513
[Rope3_Seg01]
33 0.000010 0.000038 -0.000114 -132.315170 13.896674 -83.570465 0.000121
34 0.000010 0.000038 -0.000114 -133.030655 16.904470 -84.448288 0.000121
[Rope3_Seg02]
33 139.999924 -0.000119 0.000060 0.060697 -1.926414 -2.334222 139.999924
34 139.999924 -0.000119 0.000060 0.057417 -2.074883 -2.532195 139.999924
[Rope3_Seg03]
33 139.999924 -0.000119 0.000119 0.072741 -2.262547 -2.596990 139.999924
34 139.999924 -0.000119 0.000119 0.062246 -2.505235 -2.770226 139.999924
[Rope3_Seg04]
33 139.999924 0.000119 0.000000 0.068931 -5.380914 -2.274319 139.999924
34 139.999924 0.000119 0.000000 0.108745 -5.212018 -3.548648 139.999924
[Rope3_Seg05]
33 139.999924 -0.000238 0.000060 -0.079643 0.686546 -4.480797 139.999924
34 139.999924 -0.000238 0.000060 -0.023588 1.895878 -2.422585 139.999924
[Rope3_Seg06]
33 139.999893 -0.000119 -0.000060 -0.395421 5.666868 -3.717474 139.999893
34 139.999893 -0.000119 -0.000060 0.263809 5.019281 -0.457031 139.999893
[Rope3_Seg07]
33 139.999771 0.000060 -0.000119 0.185041 2.250711 -1.998175 139.999771
34 139.999771 0.000060 -0.000119 0.491921 1.829239 -0.584035 139.999771
[Rope3_Seg08]
33 139.999985 -0.000060 0.000000 0.355387 1.177588 -1.196566 139.999985
34 139.999985 -0.000060 0.000000 0.537245 1.037161 -0.389140 139.999985
[Rope3_Seg09]
33 90.185997 -0.000179 -0.000060 89.793228 -1.359877 -0.847183 90.185997
34 90.185997 -0.000179 -0.000060 89.793228 -1.359877 -0.847183 90.185997
[R_rear_hand01]
33 103.366196 -6.073594 -10.757982 -164.755127 19.627697 -40.352161 104.101845
34 103.366196 -6.073594 -10.757982 -164.755127 19.627697 -40.352161 104.101845
[R_rear_hand02]
33 100.509819 12.039542 -7.992327 -30.792652 24.782448 38.141541 101.543350
34 100.509819 12.039542 -7.992327 -30.792652 24.782448 38.141541 101.543350
[R_rear_hand03]
33 101.539970 5.215704 5.435467 82.448349 -41.048256 8.840378 101.819031
34 101.539970 5.215704 5.435467 82.448349 -41.048256 8.840378 101.819031
[Rope4_Seg01]
33 -0.000011 -0.000008 -0.000153 46.674934 17.803747 -112.270500 0.000153
34 -0.000010 -0.000006 -0.000153 44.421635 19.311832 -118.154900 0.000153
[Rope4_Seg02]
33 139.999985 0.000060 0.000119 0.257858 2.984278 4.415549 139.999985
34 139.999985 0.000060 0.000119 0.513773 4.480413 4.982733 139.999985
[Rope4_Seg03]
33 139.999924 0.000000 -0.000238 0.048911 4.791621 7.047075 139.999924
34 139.999924 0.000000 -0.000238 0.407510 7.191522 7.947479 139.999924
[Rope4_Seg04]
33 139.999985 0.000000 0.000119 -2.176066 17.887182 25.531574 139.999985
34 139.999985 0.000000 0.000119 -0.962624 22.026293 26.130173 139.999985
[Rope4_Seg05]
33 139.999802 -0.000060 -0.000119 0.165277 -4.131539 -1.929432 139.999802
34 139.999802 -0.000060 -0.000119 -1.779287 2.379022 3.616527 139.999802
[Rope4_Seg06]
33 139.999924 0.000000 0.000060 11.211694 -22.157799 -34.966537 139.999924
34 139.999924 0.000000 0.000060 16.065144 -23.225456 -37.505737 139.999924
[Rope4_Seg07]
33 139.999802 0.000000 0.000000 -0.265270 -6.617193 -7.652523 139.999802
34 139.999802 0.000000 0.000000 0.524983 -8.747253 -9.359051 139.999802
[Rope4_Seg08]
33 139.999924 0.000000 0.000119 -2.027535 -3.107218 -3.665107 139.999924
34 139.999924 0.000000 0.000119 -1.792713 -3.905036 -4.159820 139.999924
[Rope4_Seg09]
33 90.185791 0.000060 0.000060 -135.617828 2.228885 0.850567 90.185791
34 90.185791 0.000060 0.000060 -135.617828 2.228885 0.850567 90.185791
[L_rear_hand01]
33 101.696655 -8.392275 -7.654577 -31.684452 -23.583008 144.025742 102.329041
34 101.696655 -8.392275 -7.654577 -31.684452 -23.583008 144.025742 102.329041
[L_rear_hand02]
33 102.726799 -1.568258 5.773216 82.701553 38.753960 171.553619 102.900848
34 102.726799 -1.568258 5.773216 82.701553 38.753956 171.553619 102.900848
[L_rear_hand03]
33 104.552910 9.721220 -10.420293 -163.975388 -19.004416 -142.009338 105.519653
34 104.552910 9.721220 -10.420293 -163.975388 -19.004423 -142.009338 105.519653
